<?xml version="1.0" standalone="no"?>
<!DOCTYPE svg PUBLIC "-//W3C//DTD SVG 20010904//EN"
 "http://www.w3.org/TR/2001/REC-SVG-20010904/DTD/svg10.dtd">
<svg version="1.0" xmlns="http://www.w3.org/2000/svg"
 width="2000.000000pt" height="996.000000pt" viewBox="0 0 2000.000000 996.000000"
 preserveAspectRatio="xMidYMid meet">
<metadata>
Created by potrace 1.16, written by Peter Selinger 2001-2019
</metadata>
<g transform="translate(0.000000,996.000000) scale(0.100000,-0.100000)"
fill="#000000" stroke="none">
<path d="M7075 9930 c-27 -6 -23 -7 28 -15 32 -4 94 -5 138 -3 69 4 79 3 77
-11 -2 -9 -15 -17 -33 -18 -62 -6 -121 -11 -153 -12 -18 0 -31 -5 -28 -10 3
-5 -1 -12 -10 -15 -24 -9 -54 -7 -54 4 0 6 -65 10 -177 9 -196 0 -267 -12
-143 -23 103 -9 123 -10 140 -2 20 8 48 -10 35 -23 -15 -15 -69 -20 -275 -27
-102 -4 -192 -10 -200 -15 -10 -5 -11 -8 -2 -9 6 0 12 -4 12 -10 0 -6 -40 -10
-97 -11 -96 -1 -190 -16 -116 -18 56 -2 48 -21 -9 -22 -29 -1 -64 -5 -78 -9
l-25 -8 28 -1 c16 -1 26 -5 22 -11 -4 -6 -60 -10 -133 -11 -70 -1 -138 -5
-152 -9 -20 -7 -16 -8 23 -9 26 -1 47 -5 47 -11 0 -5 -9 -10 -19 -10 -11 0
-27 -8 -37 -17 -12 -13 -41 -19 -115 -23 -54 -3 -101 -9 -105 -13 -4 -4 -2 -7
5 -7 7 0 9 -4 6 -10 -3 -6 -53 -10 -113 -10 -59 0 -114 -5 -122 -10 -11 -7 -2
-10 32 -10 26 0 49 -4 52 -9 9 -14 -35 -21 -114 -20 -39 1 -74 -2 -77 -5 -4
-3 9 -6 27 -6 62 0 17 -20 -48 -22 -34 -1 -67 -5 -74 -10 -9 -5 -8 -8 5 -8 10
0 15 -4 12 -10 -3 -5 -39 -10 -78 -11 -84 -1 -151 -16 -79 -18 23 -1 42 -4 42
-8 0 -5 -28 -20 -63 -34 -50 -21 -75 -26 -127 -23 -36 1 -81 -1 -100 -6 l-35
-8 32 -1 c45 -1 50 -19 8 -27 -19 -3 -35 -10 -35 -14 0 -4 -27 -13 -60 -20
-33 -7 -57 -16 -55 -21 10 -15 -17 -22 -94 -24 -103 -3 -117 -7 -46 -14 l60
-6 -45 -24 c-34 -18 -72 -26 -155 -33 -113 -9 -149 -18 -77 -18 43 0 52 -9 29
-29 -14 -11 -128 -43 -144 -40 -4 1 -19 1 -33 -1 -23 -1 -23 -2 -5 -9 19 -8
19 -8 -1 -19 -12 -6 -36 -9 -55 -6 -19 3 -45 1 -59 -4 l-25 -9 32 -7 c26 -6
30 -10 20 -19 -11 -11 -60 -32 -102 -44 -11 -4 -23 -11 -27 -16 -3 -6 -42 -13
-86 -16 -86 -7 -110 -16 -68 -27 14 -3 26 -12 26 -20 0 -23 -40 -36 -111 -35
-69 1 -93 -10 -62 -28 17 -10 17 -10 1 -11 -10 0 -18 -6 -18 -12 0 -7 -14 -21
-30 -30 -24 -14 -35 -15 -55 -6 -13 6 -32 7 -42 4 -17 -7 -17 -8 0 -18 10 -5
25 -7 33 -4 8 3 14 1 14 -4 0 -6 -7 -10 -15 -10 -7 0 -19 -8 -25 -17 -10 -17
-10 -17 -20 0 -12 18 -55 24 -64 8 -4 -5 6 -14 21 -19 l28 -10 -25 -3 c-14 -1
-41 -1 -61 0 -20 2 -40 -2 -44 -8 -4 -7 4 -11 20 -11 22 0 26 -4 23 -22 -2
-17 -11 -24 -32 -26 -17 -2 -26 0 -22 7 8 13 -11 24 -25 15 -8 -4 -7 -9 2 -14
10 -7 10 -11 -1 -25 -9 -11 -16 -13 -24 -5 -12 12 -56 13 -74 1 -11 -7 -10
-10 3 -15 9 -3 25 -6 36 -6 25 0 24 -16 0 -30 -27 -14 -41 -13 -41 5 0 12 -7
14 -27 9 -37 -9 -42 -14 -14 -14 14 0 21 -5 18 -12 -2 -9 -21 -12 -55 -10 -52
2 -78 -12 -42 -23 26 -8 26 -42 1 -50 -11 -3 -38 -7 -61 -8 -34 -1 -40 -4 -37
-19 6 -21 -18 -45 -28 -28 -7 11 -48 14 -58 3 -4 -3 -3 -11 3 -17 5 -7 5 -18
0 -26 -7 -11 -11 -11 -23 -1 -13 10 -16 8 -19 -11 -2 -19 -9 -23 -38 -24 -52
-2 -55 -3 -43 -15 6 -6 9 -19 6 -29 -6 -21 -56 -45 -72 -35 -6 3 -11 -1 -11
-10 0 -15 -34 -34 -61 -33 -8 1 -23 0 -34 -1 -19 -1 -19 -2 -2 -12 20 -12 13
-31 -8 -22 -10 3 -15 -2 -15 -16 0 -13 -6 -21 -17 -21 -10 0 -29 -12 -42 -25
-13 -14 -30 -25 -38 -25 -8 0 -12 -4 -9 -9 8 -13 -21 -34 -39 -27 -10 3 -15
-1 -15 -13 0 -14 -10 -21 -35 -25 -19 -4 -35 -13 -35 -20 0 -7 -11 -25 -25
-40 -18 -20 -31 -25 -46 -21 -16 5 -20 3 -17 -12 2 -12 -4 -19 -20 -21 -14 -2
-22 -10 -22 -23 0 -12 -7 -19 -20 -19 -13 0 -20 -7 -20 -20 0 -14 -7 -20 -21
-20 -12 0 -23 -8 -26 -20 -3 -11 -12 -20 -19 -20 -8 0 -14 -7 -14 -15 0 -8 -5
-15 -10 -15 -6 0 -44 -34 -86 -75 -42 -41 -81 -72 -85 -69 -5 3 -9 -2 -9 -11
0 -9 -20 -36 -45 -61 -25 -24 -45 -49 -45 -54 0 -13 -48 -32 -61 -24 -5 3 -9
-4 -9 -16 0 -11 -11 -32 -25 -46 -14 -14 -25 -32 -25 -40 0 -24 -19 -54 -35
-54 -8 0 -15 9 -15 20 0 11 -7 20 -15 20 -8 0 -14 -8 -13 -17 3 -45 -3 -63
-21 -63 -14 0 -18 -5 -14 -21 4 -15 0 -22 -16 -26 -16 -4 -23 -16 -28 -46 -7
-47 -64 -107 -100 -107 -20 0 -23 -5 -23 -40 0 -33 -3 -40 -20 -40 -17 0 -20
-7 -20 -40 0 -50 -24 -65 -51 -31 l-18 22 -7 -25 c-3 -14 -3 -38 0 -52 5 -20
1 -33 -17 -53 -14 -14 -27 -35 -29 -46 -2 -11 -9 -19 -16 -18 -6 2 -13 -17
-17 -45 -12 -93 -36 -117 -60 -60 l-13 33 -7 -37 c-4 -20 -4 -46 0 -57 9 -28
-3 -45 -20 -31 -19 16 -28 -4 -21 -44 5 -23 2 -37 -9 -46 -12 -10 -15 -10 -16
1 -1 8 -4 3 -9 -11 -4 -14 -5 -35 -3 -47 7 -30 -15 -93 -33 -93 -8 0 -14 -6
-15 -12 0 -7 -6 0 -13 16 -11 23 -14 25 -19 11 -11 -27 -8 -80 5 -93 9 -9 8
-17 -2 -37 -15 -29 -29 -17 -30 25 -1 23 -1 24 -12 6 -6 -12 -8 -43 -5 -83 4
-35 4 -70 1 -78 -11 -29 -24 -15 -25 28 0 31 -2 37 -8 22 -5 -11 -9 -69 -9
-128 -1 -121 -6 -144 -33 -170 -18 -17 -19 -17 -20 25 0 24 -4 52 -9 63 -6 17
-9 14 -15 -17 -6 -31 -2 -170 6 -204 1 -5 -1 -17 -6 -27 -10 -25 -24 -4 -26
38 l-1 30 -10 -35 c-15 -49 -3 -367 14 -388 10 -12 13 -93 14 -353 0 -186 -3
-336 -8 -333 -4 3 -8 17 -9 32 l-1 27 -8 -25 c-11 -34 -12 -232 -1 -248 12
-20 21 20 22 108 l1 75 15 -34 c8 -19 17 -65 20 -103 5 -56 3 -68 -8 -66 -18
4 -24 -87 -11 -158 l9 -49 8 78 c6 63 11 77 23 75 24 -5 32 -51 34 -205 1 -78
5 -148 9 -155 10 -15 13 7 10 60 -3 42 4 41 29 -8 24 -47 24 -50 5 -50 -10 0
-15 -10 -15 -32 0 -47 15 -68 24 -34 6 23 9 25 21 13 11 -12 12 -22 3 -50 -6
-20 -7 -47 -3 -63 8 -28 8 -28 18 16 6 25 12 37 14 27 3 -9 8 -17 12 -17 4 0
15 -24 25 -53 10 -28 21 -61 26 -72 20 -48 27 -84 23 -108 -7 -37 3 -62 20
-49 19 16 46 -3 29 -20 -6 -6 -12 -22 -12 -34 0 -25 15 -40 24 -25 10 16 47
-1 57 -26 5 -13 7 -40 4 -59 -3 -25 -1 -34 8 -31 7 2 10 13 9 23 -3 15 -1 17
9 6 7 -7 13 -30 12 -52 -2 -41 11 -61 21 -34 9 24 24 8 19 -21 -3 -13 -2 -32
1 -41 6 -15 8 -15 31 0 24 16 26 16 31 -1 3 -10 10 -28 16 -40 6 -11 7 -26 4
-32 -4 -6 -1 -11 6 -11 16 0 39 -47 32 -65 -3 -8 -1 -22 5 -32 10 -17 10 -17
11 0 0 10 8 17 20 17 11 0 20 -4 20 -10 0 -5 -4 -10 -10 -10 -5 0 -10 -13 -10
-29 0 -25 4 -29 25 -27 23 1 37 16 15 16 -5 0 -10 5 -10 10 0 25 35 3 45 -28
5 -19 3 -23 -11 -20 -9 2 -19 -3 -21 -10 -3 -8 4 -11 19 -10 19 3 23 -1 20
-21 -2 -19 2 -22 17 -18 10 2 25 1 32 -3 10 -7 10 -11 0 -24 -12 -14 -11 -16
10 -14 22 3 24 0 22 -39 -2 -40 -1 -43 22 -41 23 2 37 18 15 18 -5 0 -10 5
-10 10 0 22 40 -11 46 -38 4 -15 18 -38 31 -51 15 -15 21 -31 18 -43 -5 -14
-2 -17 17 -16 18 3 23 -1 21 -19 -2 -18 2 -22 20 -20 17 2 22 -3 20 -20 -2
-18 2 -22 20 -20 18 2 22 -3 20 -21 -2 -17 2 -22 15 -20 11 2 18 -4 20 -19 2
-14 11 -23 25 -25 15 -2 21 -9 19 -20 -2 -13 3 -17 20 -15 19 2 23 -2 21 -21
-2 -17 2 -22 15 -20 11 2 18 -5 20 -20 3 -17 8 -22 19 -18 18 7 43 -10 39 -27
-1 -7 -1 -9 1 -6 2 4 15 2 28 -5 28 -13 47 -49 38 -72 -5 -13 -2 -15 15 -10
16 6 30 -1 56 -28 29 -28 32 -35 18 -39 -9 -2 2 -7 26 -11 32 -6 42 -12 42
-27 0 -13 6 -19 17 -17 12 2 18 -4 18 -17 0 -14 6 -19 18 -17 28 5 50 -17 36
-34 -9 -11 -8 -14 7 -13 46 5 64 -1 64 -21 0 -13 7 -20 20 -20 28 0 25 -20 -2
-21 -14 -1 -5 -6 20 -12 30 -7 42 -15 42 -28 0 -11 5 -16 13 -13 20 7 67 -13
67 -30 0 -8 10 -16 23 -19 22 -4 22 -4 -3 -15 l-25 -11 25 -2 c14 -1 34 -2 45
-3 14 -1 19 -7 18 -23 -2 -17 2 -21 20 -19 13 1 28 5 34 9 14 9 27 -9 18 -23
-3 -6 -13 -10 -21 -10 -8 0 -14 -5 -14 -11 0 -6 17 -9 43 -7 38 3 42 1 40 -18
-2 -19 3 -21 35 -20 41 1 56 -16 20 -25 -22 -5 -22 -6 5 -11 18 -4 30 0 36 9
5 10 15 13 30 8 22 -7 29 -25 10 -25 -15 0 -39 -26 -32 -34 10 -10 73 -7 73 4
0 6 5 10 10 10 16 0 11 -28 -7 -38 -14 -9 -14 -10 5 -16 27 -9 43 0 35 19 -6
17 6 19 41 5 33 -12 34 -30 2 -30 -20 0 -36 -16 -36 -36 0 -2 16 -4 35 -4 24
0 35 5 35 15 0 20 24 19 44 -1 20 -19 20 -25 1 -18 -16 6 -45 -12 -45 -27 0
-5 16 -9 35 -9 25 0 35 4 35 16 0 10 7 14 22 12 33 -5 32 -25 -2 -36 -16 -6
-30 -16 -30 -21 0 -17 80 -13 86 3 7 17 34 10 34 -9 0 -8 -9 -15 -20 -17 -33
-5 -28 -23 8 -26 24 -2 32 1 32 12 0 17 17 20 44 10 21 -8 20 -24 -1 -24 -22
-1 -55 -25 -46 -33 14 -15 72 -7 82 11 8 14 12 15 23 4 11 -11 9 -17 -9 -32
-31 -24 -29 -30 8 -30 27 0 31 3 26 21 -4 15 -2 19 10 15 8 -3 24 -6 35 -6 28
0 19 -33 -11 -40 -14 -3 -26 -11 -29 -18 -6 -19 88 -16 102 4 11 14 13 14 25
0 11 -13 9 -17 -13 -26 -37 -14 -33 -32 7 -28 23 2 31 7 29 20 -2 12 3 15 20
11 29 -7 49 -23 43 -33 -2 -4 -19 -10 -37 -14 -22 -4 -29 -9 -21 -17 15 -15
79 -7 75 10 -2 10 4 12 25 6 15 -3 30 -10 33 -14 3 -5 21 -13 42 -20 44 -14
59 -41 24 -41 -14 0 -31 -3 -40 -6 -27 -10 -7 -24 35 -24 28 0 39 4 39 15 0
17 45 21 55 5 7 -11 128 -70 143 -70 5 0 15 -6 21 -14 7 -8 27 -18 44 -22 18
-3 44 -15 59 -25 14 -11 31 -19 38 -19 6 0 23 -9 37 -20 14 -11 40 -20 58 -20
32 0 61 -20 48 -33 -3 -4 -18 -7 -32 -7 -14 0 -33 -4 -41 -10 -12 -8 -12 -10
2 -15 9 -4 33 -5 54 -3 28 2 39 7 38 19 -1 18 37 15 71 -6 11 -7 37 -16 58
-19 21 -4 40 -13 43 -21 3 -7 22 -16 42 -20 20 -4 47 -15 60 -26 14 -10 37
-19 52 -19 15 0 33 -6 39 -14 6 -7 30 -17 54 -20 23 -4 51 -13 63 -21 12 -7
38 -17 58 -21 21 -3 40 -12 43 -20 2 -7 23 -16 46 -19 23 -4 51 -13 62 -19 11
-7 42 -16 68 -19 27 -4 60 -16 74 -27 l26 -20 -49 0 c-55 0 -90 -14 -63 -25
29 -11 124 -1 121 13 -3 16 42 16 76 -2 15 -7 49 -17 77 -21 27 -4 65 -15 85
-25 75 -39 147 -60 285 -86 44 -9 94 -20 110 -26 17 -6 42 -13 58 -15 52 -10
39 -23 -16 -17 -66 8 -157 -3 -136 -17 8 -4 82 -7 166 -6 110 1 156 -2 165
-11 9 -9 -6 -12 -77 -12 -71 -1 -86 -3 -71 -12 12 -7 47 -8 95 -5 88 7 242 -9
370 -39 33 -7 9 -23 -25 -16 -13 2 -54 1 -91 -3 -117 -12 -48 -25 140 -25 116
0 176 -3 172 -10 -3 -5 -38 -10 -78 -10 -52 0 -68 -3 -60 -11 11 -11 159 -7
235 7 42 7 88 -1 88 -16 0 -6 -19 -10 -42 -10 -63 0 -118 -11 -112 -22 3 -5
77 -9 167 -8 89 1 171 1 182 0 l20 -1 -20 -9 c-11 -5 -37 -9 -57 -9 -22 -1
-38 -6 -38 -13 0 -8 54 -10 210 -5 218 7 280 -5 95 -18 -58 -4 -103 -11 -99
-16 9 -15 296 -11 319 4 22 14 145 11 145 -3 0 -10 -32 -16 -133 -25 -123 -12
-59 -25 119 -25 116 0 183 4 197 12 14 7 58 11 117 9 111 -2 151 -21 45 -21
-83 0 -235 -21 -235 -32 0 -9 360 -11 384 -2 9 3 13 10 10 15 -6 10 301 12
394 3 113 -12 52 -24 -126 -25 -97 0 -199 -4 -227 -9 -27 -4 319 -5 770 -1
967 7 1265 7 1875 -2 279 -4 440 -3 415 3 -22 5 -112 9 -200 10 -172 0 -233
13 -118 23 103 10 365 8 359 -2 -3 -5 1 -12 10 -15 24 -9 404 -7 404 2 0 9
-194 32 -276 33 -43 0 -46 1 -24 10 14 6 60 8 105 5 179 -13 495 -18 495 -8 0
6 -38 13 -85 17 -90 8 -107 18 -52 33 23 7 38 6 54 -4 26 -16 338 -20 347 -5
3 5 -37 12 -89 16 -161 12 -116 24 65 18 115 -4 170 -3 170 4 0 6 -10 14 -22
19 -14 5 48 10 162 14 102 3 187 8 190 9 10 7 -57 19 -110 20 -38 1 -50 4 -40
11 19 11 87 12 197 4 51 -4 88 -2 100 5 14 8 3 10 -49 11 -39 0 -68 4 -68 10
0 6 63 10 168 11 92 0 176 4 187 9 15 6 7 9 -31 9 -72 1 -119 12 -102 22 7 5
30 9 50 9 20 0 39 4 42 9 11 17 135 32 214 25 51 -4 86 -3 98 4 15 9 2 11 -61
12 -55 0 -75 3 -65 10 8 5 80 10 160 11 154 0 217 10 145 22 -22 4 -56 7 -75
7 l-35 1 25 13 c26 14 184 49 210 48 8 -1 43 -4 78 -8 42 -4 67 -3 75 5 12 12
-7 15 -78 12 -38 -2 -39 -1 -20 14 17 14 35 15 112 10 97 -7 156 1 118 16 -11
4 -38 8 -60 9 -39 1 -40 1 -15 14 44 23 77 27 84 11 4 -11 21 -15 60 -15 59 0
91 20 34 21 -18 0 -42 4 -52 8 -36 14 21 21 110 14 48 -3 88 -2 99 4 16 9 14
12 -14 18 -18 4 -54 4 -79 1 l-47 -6 37 20 c54 29 122 42 220 42 85 -1 121 10
76 21 -41 11 -8 21 63 19 38 -2 74 0 80 4 18 11 -12 24 -56 24 l-40 0 25 20
c28 22 91 27 88 8 -3 -14 54 -23 80 -13 14 5 14 7 2 15 -8 6 -28 10 -44 10
l-29 0 26 20 c14 11 34 20 44 20 10 0 27 6 38 13 31 22 63 27 69 11 6 -16 91
-20 100 -5 7 11 -17 21 -52 21 l-27 0 25 20 c36 27 96 39 167 33 70 -6 107 2
83 17 -8 6 -29 10 -47 10 -24 0 -31 4 -27 14 7 17 56 36 93 36 15 0 32 5 38
11 8 8 13 8 17 0 9 -14 93 -15 101 -1 7 12 -39 24 -66 17 -23 -6 -22 12 2 24
127 64 149 70 149 44 0 -11 12 -15 46 -15 53 0 58 23 6 28 -34 3 -39 11 -20
30 17 17 58 15 58 -3 0 -11 11 -15 41 -15 50 0 49 23 -1 30 -32 5 -33 6 -16
23 21 21 56 22 56 2 0 -11 11 -15 39 -15 52 0 60 15 16 31 -27 10 -32 16 -23
26 14 17 59 17 56 1 -2 -8 10 -14 30 -16 39 -4 42 13 5 26 l-28 10 25 3 c14 1
47 1 74 -1 37 -1 47 1 44 11 -3 8 -17 15 -32 17 -38 5 -31 36 9 40 17 2 37 9
45 16 17 15 79 47 130 69 20 8 53 12 76 10 50 -6 71 14 25 23 -36 7 -39 19
-12 34 25 13 44 13 36 0 -9 -15 18 -22 46 -11 23 9 23 10 2 10 -28 1 -37 15
-19 30 10 8 16 9 21 1 7 -12 82 -14 89 -1 3 4 -6 13 -20 20 -14 6 -24 17 -22
23 6 17 86 36 131 30 39 -5 53 12 17 21 -11 3 -20 12 -20 21 0 20 37 35 103
41 48 5 78 15 44 15 -24 0 -21 17 3 23 11 3 20 12 20 21 0 11 9 16 29 16 41 0
61 9 54 26 -5 13 18 20 55 15 8 -1 12 5 10 16 -4 29 11 46 29 32 12 -11 14
-10 11 7 -2 16 4 19 40 22 34 3 42 7 40 20 -4 28 11 45 28 31 12 -10 14 -7 12
12 -3 22 0 24 40 23 23 -1 42 2 42 7 0 5 -9 9 -20 9 -11 0 -20 4 -20 9 0 10
58 23 71 15 5 -3 8 5 6 17 -1 15 5 24 18 28 11 3 20 13 20 21 0 9 9 15 23 14
15 0 22 5 22 17 0 12 11 19 39 24 28 5 38 11 34 20 -8 22 43 67 67 60 16 -5
20 -2 18 17 -2 18 2 23 20 22 15 0 22 5 22 18 0 11 7 18 20 18 13 0 20 7 20
20 0 20 17 26 63 22 11 -1 17 3 14 10 -2 7 -11 12 -21 10 -9 -2 -16 1 -16 6 0
18 47 52 78 55 34 4 56 17 29 17 -15 0 -14 3 3 20 11 11 20 24 20 30 0 6 7 10
15 10 8 0 15 7 15 15 0 8 4 15 10 15 15 0 145 133 158 163 11 25 70 62 89 55
4 -2 13 15 19 37 7 23 17 39 24 37 7 -2 10 3 7 12 -7 18 16 38 35 31 10 -4 14
1 14 17 -1 16 4 23 17 22 10 -1 17 5 17 16 0 10 11 28 25 41 13 13 25 29 25
35 0 7 9 14 19 17 11 2 21 15 23 28 2 16 9 23 20 21 12 -2 17 3 16 15 -3 37 2
53 17 53 9 0 20 11 25 25 5 14 16 25 24 25 9 0 13 6 10 13 -8 21 14 67 31 67
8 0 15 9 15 20 0 11 5 20 10 20 6 0 10 -7 8 -16 -2 -10 3 -19 10 -22 10 -3 12
5 8 33 -7 40 10 77 25 54 4 -7 10 6 14 30 7 40 25 58 25 24 0 -29 12 -6 14 29
5 56 6 58 16 58 6 0 10 -8 10 -17 0 -34 12 -2 16 44 5 52 23 84 25 43 1 -23 1
-23 9 4 5 16 7 33 5 37 -3 4 -2 15 2 25 6 16 7 16 19 -1 16 -21 21 -11 26 45
2 28 7 34 21 32 15 -3 18 3 16 30 -3 42 10 137 23 161 14 26 28 20 28 -12 0
-37 10 -62 21 -55 5 3 9 42 9 86 0 62 -4 84 -16 92 -19 14 -8 48 15 44 11 -2
17 -16 19 -46 2 -23 7 -40 13 -37 13 8 11 52 -3 92 -10 28 -10 36 4 49 14 14
16 12 22 -30 4 -26 11 -44 16 -41 11 7 7 282 -5 309 -5 11 -3 21 4 26 7 4 16
33 20 64 4 31 13 62 19 68 17 17 17 1179 0 1196 -6 6 -15 47 -19 89 -4 43 -13
97 -20 121 -9 27 -10 46 -4 50 12 9 20 207 9 224 -10 16 -21 -21 -23 -72 -1
-26 -4 -31 -11 -20 -5 8 -9 39 -8 68 0 29 -2 56 -6 59 -3 3 -6 -1 -6 -11 0 -9
-4 -14 -10 -11 -5 3 -10 46 -10 95 0 100 -12 122 -29 55 -6 -25 -15 -45 -20
-45 -13 0 -21 53 -10 67 7 7 6 12 -2 15 -7 2 -14 30 -17 69 -2 35 -8 68 -13
74 -6 5 -9 4 -9 -3 0 -7 -4 -12 -10 -12 -5 0 -10 23 -10 51 0 46 -2 50 -20 44
-17 -5 -21 -1 -27 25 -4 22 -8 27 -14 19 -12 -20 -19 -7 -20 44 -2 41 -18 94
-19 60 0 -7 -4 -13 -10 -13 -5 0 -10 9 -10 20 0 11 -7 20 -15 20 -19 0 -37 43
-28 67 5 13 2 15 -11 10 -18 -7 -25 3 -31 49 -1 16 -8 28 -15 26 -18 -4 -42
19 -36 34 3 8 0 13 -7 11 -6 -1 -13 9 -15 22 -2 13 -12 26 -23 28 -18 5 -21
11 -23 58 -1 11 -8 20 -16 20 -8 0 -15 4 -15 9 0 5 -10 12 -22 17 -22 8 -28
27 -25 72 1 11 -5 17 -18 17 -13 0 -20 7 -20 19 0 10 -9 21 -20 24 -11 3 -20
12 -20 20 0 8 -9 17 -20 20 -11 3 -20 13 -20 22 0 14 -6 16 -30 12 -17 -4 -30
-2 -30 3 0 6 5 10 10 10 6 0 10 7 10 15 0 8 -6 15 -13 15 -14 0 -37 40 -37 65
0 8 -6 14 -12 13 -7 -2 -14 7 -16 20 -2 14 -10 22 -23 22 -12 0 -19 7 -19 20
0 13 -7 20 -20 20 -14 0 -20 7 -20 21 0 14 -5 19 -14 16 -18 -7 -36 11 -29 29
3 9 -2 14 -16 14 -14 0 -21 6 -21 19 0 13 -8 21 -22 23 -13 2 -22 9 -20 16 1
6 -7 12 -18 12 -11 0 -24 8 -27 18 -4 9 -15 23 -25 30 -10 7 -16 18 -13 23 4
5 -4 9 -15 9 -13 0 -24 8 -27 20 -3 11 -12 20 -20 20 -8 0 -43 29 -78 65 -66
66 -80 75 -88 53 -3 -10 -8 -10 -18 1 -11 10 -11 15 -1 18 20 8 14 31 -10 35
-13 2 -22 9 -20 16 1 6 -7 12 -18 12 -12 0 -31 11 -44 25 -13 14 -31 25 -40
25 -9 0 -16 8 -16 19 0 13 -5 18 -18 14 -21 -5 -75 44 -68 63 3 7 -8 14 -27
18 -19 4 -33 2 -35 -4 -2 -5 -11 -10 -19 -10 -9 0 -13 6 -10 14 3 8 -1 17 -9
20 -8 3 -14 18 -14 34 0 23 -4 28 -22 28 -17 -1 -23 5 -23 19 0 16 -7 20 -38
20 -46 0 -88 34 -80 65 5 18 0 20 -36 20 -22 0 -41 5 -41 10 0 6 7 10 17 10
29 0 6 12 -29 15 -18 2 -39 3 -45 4 -22 2 -14 21 9 21 34 0 11 14 -28 17 -20
1 -32 -2 -29 -8 9 -14 -11 -11 -24 5 -9 11 -8 15 4 20 27 10 6 26 -34 26 -30
0 -40 4 -44 20 -3 11 -12 20 -21 20 -9 0 -16 5 -16 10 0 6 12 10 27 10 14 0
24 3 20 6 -5 5 -42 9 -109 13 -22 1 -24 21 -3 21 8 0 15 4 15 8 0 4 -17 8 -37
7 -33 0 -38 3 -36 21 2 17 -4 21 -33 22 -40 2 -57 9 -49 22 3 5 1 11 -5 15 -5
3 -10 0 -10 -9 0 -13 -4 -13 -30 0 -39 20 -38 34 2 34 17 0 28 3 25 7 -8 7
-35 11 -94 12 -36 1 -43 4 -43 22 0 11 -4 18 -10 14 -12 -8 -60 5 -60 16 0 5
15 9 33 10 29 0 30 1 10 9 -13 5 -44 9 -70 8 -31 0 -50 4 -57 15 -7 8 -19 16
-29 18 -29 6 -23 24 9 29 28 6 28 6 -11 13 -22 4 -57 7 -78 7 -21 0 -58 11
-83 24 -40 21 -42 24 -22 30 13 3 34 6 48 6 19 1 21 3 10 9 -8 5 -46 9 -84 8
-57 0 -72 3 -83 19 -8 10 -18 18 -23 17 -17 -5 -60 17 -58 29 2 7 -10 12 -29
14 -46 2 -63 11 -57 28 4 11 -3 14 -32 12 -22 0 -39 4 -41 12 -3 8 8 12 34 13
68 1 4 17 -71 18 -50 0 -77 6 -106 22 -47 27 -43 39 12 39 72 0 31 13 -49 16
-103 4 -140 11 -147 29 -3 8 -13 15 -21 15 -28 0 -5 20 23 21 27 0 27 0 4 10
-13 5 -50 8 -82 7 -37 -2 -64 2 -71 10 -10 10 -6 12 21 12 69 0 16 15 -58 16
-53 1 -95 8 -134 23 -64 25 -76 44 -25 40 50 -3 81 0 73 8 -4 4 -67 10 -139
14 -109 4 -139 9 -172 27 -22 11 -33 22 -25 23 8 1 24 3 35 4 11 1 29 2 40 3
17 2 18 4 5 12 -8 5 -54 10 -102 10 -97 0 -144 10 -93 20 23 5 15 8 -40 14
-99 11 -120 19 -70 27 32 5 24 6 -37 8 -42 0 -83 4 -92 7 -28 11 -6 24 42 25
94 1 9 18 -95 18 -56 1 -105 5 -108 11 -4 6 9 10 31 10 73 0 27 9 -71 15 -112
5 -155 24 -60 26 55 1 57 2 25 10 -19 5 -65 6 -102 3 -76 -7 -131 1 -107 17 7
5 34 9 59 9 34 0 41 3 30 10 -9 6 -71 10 -145 9 -71 0 -141 0 -155 1 l-25 2
25 8 c14 4 43 8 65 9 28 1 36 4 28 12 -11 11 -129 7 -190 -6 -52 -11 -40 12
15 29 46 14 47 14 18 21 -16 4 -80 5 -142 2 -115 -6 -156 5 -64 18 31 4 48 11
43 17 -4 8 -57 9 -162 5 -95 -4 -162 -3 -171 3 -11 7 1 10 40 11 68 1 113 13
89 23 -28 12 -174 2 -172 -11 2 -10 -20 -13 -86 -13 -49 0 -96 3 -105 6 -33
13 -14 24 42 24 75 0 176 20 164 32 -5 5 -72 7 -153 4 -235 -10 -282 -10 -326
-1 -33 6 -45 4 -58 -9 -20 -19 -29 -20 -47 -3 -7 7 -44 18 -82 24 -38 7 -75
18 -83 25 -11 12 2 13 83 10 99 -5 209 12 199 29 -4 5 -73 9 -156 9 -123 0
-149 -2 -149 -15 0 -19 -169 -19 -225 1 -34 12 -383 14 -2275 13 -1229 -1
-2248 -5 -2265 -9z m4485 -43 c113 -15 266 -36 340 -47 74 -12 158 -23 187
-26 28 -2 83 -11 121 -19 39 -8 108 -17 154 -21 46 -3 97 -10 113 -15 28 -8
75 -18 263 -54 42 -8 88 -19 101 -25 38 -17 158 -41 254 -50 48 -5 111 -18
140 -29 29 -11 106 -32 172 -47 66 -14 126 -30 135 -34 28 -15 175 -58 235
-70 206 -42 955 -312 1310 -473 66 -30 143 -64 170 -77 220 -99 623 -313 831
-440 250 -154 709 -475 849 -595 33 -28 107 -89 165 -136 131 -105 397 -367
481 -475 35 -44 94 -117 131 -160 93 -112 223 -294 272 -383 50 -92 92 -179
208 -431 21 -47 43 -94 48 -105 41 -84 142 -462 169 -631 22 -137 25 -262 12
-589 l-6 -160 -7 255 c-8 285 -14 332 -63 537 -55 226 -128 419 -248 652 -181
355 -427 682 -766 1022 -424 424 -959 809 -1611 1158 -476 255 -1033 487
-1625 677 -1083 348 -2281 565 -3530 641 -526 32 -1613 21 -2120 -22 -353 -29
-940 -98 -1115 -130 -41 -8 -140 -24 -220 -35 -330 -49 -844 -162 -1335 -295
-177 -48 -561 -163 -649 -195 -28 -10 -105 -37 -171 -60 -1182 -415 -2150
-979 -2913 -1697 -186 -176 -455 -494 -593 -704 -207 -313 -338 -589 -449
-949 -54 -177 -71 -259 -91 -442 -19 -170 -33 -138 -27 61 8 229 33 371 125
686 104 359 336 781 633 1151 36 44 101 125 145 180 220 273 562 577 930 827
859 582 1595 941 2595 1265 229 75 591 177 700 197 52 10 115 24 140 31 25 8
68 16 95 20 28 3 124 21 215 40 91 19 208 43 260 53 86 17 142 28 420 76 156
27 563 83 725 100 88 9 169 18 180 19 11 2 760 3 1665 2 l1645 -2 205 -27z
m-1805 -1347 c72 -5 204 -12 295 -15 253 -9 935 -86 1275 -145 61 -10 137 -23
170 -29 84 -14 343 -67 445 -90 47 -11 128 -30 180 -42 106 -24 217 -53 302
-81 32 -10 63 -18 70 -18 13 0 129 -35 403 -122 159 -50 323 -109 430 -153 44
-18 91 -36 105 -40 14 -4 59 -22 100 -40 41 -18 129 -56 195 -83 203 -86 653
-317 780 -402 22 -14 89 -55 148 -91 114 -67 403 -278 515 -376 274 -237 497
-485 665 -738 137 -208 259 -485 317 -726 84 -347 61 -771 -61 -1127 -74 -214
-134 -333 -275 -548 -172 -261 -349 -462 -609 -689 -182 -158 -423 -337 -610
-452 -289 -178 -636 -359 -895 -467 -66 -28 -117 -50 -180 -79 -19 -9 -53 -23
-75 -31 -22 -7 -65 -24 -95 -36 -112 -45 -186 -71 -224 -81 -21 -5 -48 -15
-60 -21 -11 -6 -34 -15 -51 -19 -16 -4 -68 -21 -115 -39 -47 -17 -116 -40
-155 -51 -38 -11 -110 -31 -160 -45 -85 -25 -139 -40 -300 -84 -112 -30 -359
-87 -525 -120 -58 -12 -131 -28 -162 -36 -31 -7 -83 -16 -115 -20 -32 -3 -103
-14 -158 -24 -390 -71 -813 -118 -1355 -151 -308 -18 -421 -20 -850 -16 -616
7 -1017 33 -1560 103 -152 19 -442 64 -451 69 -3 3 -49 9 -100 15 -52 6 -116
17 -144 25 -82 22 -231 55 -251 55 -25 0 -379 84 -489 116 -27 8 -90 26 -140
39 -49 13 -128 36 -175 50 -47 14 -107 32 -135 40 -121 33 -550 188 -755 273
-957 397 -1722 935 -2156 1517 -197 265 -314 490 -408 783 -41 131 -62 234
-76 387 -40 430 45 825 260 1215 360 655 1046 1232 2005 1688 435 207 827 355
1305 492 80 23 172 50 205 60 158 47 855 203 970 217 17 2 75 12 130 23 257
49 1042 139 1220 141 55 0 188 7 295 13 234 16 903 19 1085 6z"/>
<path d="M6672 7222 c-7 -5 -15 -24 -18 -43 -9 -56 14 -74 145 -108 156 -41
255 -92 304 -156 20 -28 44 -72 53 -100 31 -101 35 -312 31 -1657 -3 -1232 -5
-1338 -21 -1393 -10 -33 -20 -69 -22 -80 -3 -11 -22 -45 -42 -75 -60 -90 -205
-163 -404 -205 -21 -4 -30 -14 -39 -46 -25 -80 -111 -74 976 -77 707 -1 971 1
981 9 21 17 17 73 -5 93 -11 10 -63 29 -117 42 -174 45 -273 111 -333 224 -57
106 -61 162 -61 826 0 643 -3 612 53 599 69 -16 322 -35 467 -35 145 0 365 17
480 36 317 55 591 182 784 365 217 205 310 398 323 669 12 262 -42 450 -184
636 -153 199 -412 355 -705 423 -231 54 -236 54 -1478 58 -635 2 -1161 -1
-1168 -5z m1989 -256 c378 -109 588 -464 549 -929 -19 -239 -90 -411 -225
-552 -80 -83 -206 -152 -340 -185 -82 -21 -107 -22 -288 -18 -179 4 -201 7
-225 25 l-27 20 -3 819 c-1 450 0 825 3 833 8 20 478 10 556 -13z"/>
<path d="M5225 5681 c-160 -32 -275 -88 -382 -186 -128 -117 -196 -254 -209
-422 -16 -211 46 -380 194 -529 86 -88 187 -155 472 -316 325 -184 435 -265
489 -362 114 -204 27 -397 -216 -478 -92 -31 -317 -33 -403 -4 -103 34 -178
76 -244 138 -103 94 -164 191 -211 336 -22 69 -31 83 -51 88 -14 4 -29 3 -34
-2 -5 -5 -10 -164 -11 -354 l-2 -345 24 -3 c15 -2 42 8 64 24 73 50 96 55 190
45 46 -6 101 -14 122 -20 21 -5 106 -20 188 -31 368 -54 651 15 856 208 112
105 162 200 189 359 22 134 -13 300 -94 438 -39 65 -219 243 -296 292 -36 22
-141 85 -235 140 -93 55 -196 115 -228 134 -243 144 -311 197 -363 286 -23 39
-29 63 -32 130 -4 75 -2 88 23 139 21 42 42 67 87 100 110 81 135 89 288 89
124 0 140 -2 198 -26 113 -48 246 -153 319 -252 21 -28 56 -87 78 -131 39 -78
41 -81 75 -81 l35 0 0 305 0 305 -35 -1 c-24 -1 -52 -12 -80 -33 -44 -32 -47
-33 -125 -28 -44 2 -129 16 -190 31 -148 36 -322 43 -450 17z"/>
<path d="M10483 5663 c-18 -4 -23 -11 -23 -37 0 -27 5 -35 28 -44 193 -70 230
-94 266 -172 21 -44 21 -58 24 -880 3 -876 0 -964 -39 -1026 -28 -47 -90 -87
-174 -113 -95 -30 -117 -46 -113 -79 l3 -27 598 -3 598 -2 -3 37 -3 37 -92 32
c-50 17 -103 38 -117 47 -36 24 -73 76 -85 122 -6 24 -11 207 -12 459 -2 404
-1 420 17 427 23 9 1081 10 1147 1 l48 -7 1 -385 c1 -405 -5 -481 -43 -550
-27 -47 -78 -81 -174 -114 -96 -34 -107 -42 -103 -75 l3 -26 603 -3 602 -2 0
39 c0 36 -2 40 -32 46 -68 13 -181 61 -218 92 -78 67 -74 24 -78 963 -3 856 0
937 36 1010 25 50 92 97 175 121 115 33 117 34 117 73 0 22 -6 36 -16 40 -9 3
-274 6 -590 6 l-574 0 -15 -24 c-8 -13 -13 -30 -9 -39 3 -9 46 -30 97 -49 105
-37 162 -77 191 -133 20 -38 21 -59 26 -415 3 -207 1 -381 -4 -387 -7 -10
-140 -13 -607 -13 -472 0 -599 3 -600 13 -1 6 0 178 1 380 1 287 5 376 16 402
31 75 92 121 214 160 69 22 80 31 80 65 0 20 -6 29 -22 34 -26 6 -1110 6
-1145 -1z"/>
<path d="M18512 5587 c-15 -42 -17 -1092 -2 -1131 27 -72 30 -14 30 569 0 327
-4 595 -8 595 -4 0 -13 -15 -20 -33z"/>
<path d="M788 5360 c-10 -32 -8 -717 1 -750 5 -16 10 15 16 90 14 207 1 722
-17 660z"/>
</g>
</svg>
